<?xml version="1.0" encoding="utf-8"?>
<!-- Generator: Adobe Illustrator 18.1.1, SVG Export Plug-In . SVG Version: 6.00 Build 0)  -->
<svg version="1.1" id="Layer_1" xmlns="http://www.w3.org/2000/svg" xmlns:xlink="http://www.w3.org/1999/xlink" x="0px" y="0px"
	 width="16px" height="16px" viewBox="-387 389 16 16" enable-background="new -387 389 16 16" xml:space="preserve">
<path fill="#337AB7" d="M-380.1,391c-2.7,0-4.9,2.2-4.9,4.9c0,2.7,2.2,4.9,4.9,4.9c0.9,0,1.8-0.3,2.5-0.7l0,0l2.6,2.6
	c0.4,0.4,1.1,0.5,1.6,0c0.4-0.4,0.5-1.1,0-1.6l0,0l-2.6-2.6l0,0c0.5-0.7,0.7-1.6,0.7-2.5C-375.2,393.2-377.4,391-380.1,391z
	 M-380.1,392.5c1.9,0,3.4,1.5,3.4,3.4s-1.5,3.4-3.4,3.4s-3.4-1.5-3.4-3.4S-381.9,392.5-380.1,392.5z"/>
</svg>
