<?xml version="1.0" encoding="utf-8"?>
<!-- Generator: Adobe Illustrator 18.1.1, SVG Export Plug-In . SVG Version: 6.00 Build 0)  -->
<svg version="1.1" id="Layer_1" xmlns="http://www.w3.org/2000/svg" xmlns:xlink="http://www.w3.org/1999/xlink" x="0px" y="0px"
	 width="16px" height="16px" viewBox="-387 389 16 16" enable-background="new -387 389 16 16" xml:space="preserve">
<text transform="matrix(1 0 0 1 -378 1174)" font-family="'MyriadPro-Regular'" font-size="12"></text>
<text transform="matrix(1 0 0 1 -378 1174)" font-family="'MyriadPro-Regular'" font-size="12"></text>
<g>
	<path fill="#337AB7" d="M-379,403c-3.3,0-6-2.7-6-6s2.7-6,6-6s6,2.7,6,6S-375.6,403-379,403z M-375.1,398.1c0.2-0.2,0.2-0.5,0-0.7
		l-3.5-3.5c-0.2-0.2-0.5-0.2-0.7,0l-3.5,3.5c-0.2,0.2-0.2,0.5,0,0.7l0.8,0.8c0.2,0.2,0.5,0.2,0.7,0l2.4-2.4l2.4,2.4
		c0.2,0.2,0.5,0.2,0.7,0L-375.1,398.1z"/>
</g>
</svg>
