<?xml version="1.0" encoding="utf-8"?>
<!-- Generator: Adobe Illustrator 19.1.0, SVG Export Plug-In . SVG Version: 6.00 Build 0)  -->
<svg version="1.1" id="Layer_1" xmlns="http://www.w3.org/2000/svg" xmlns:xlink="http://www.w3.org/1999/xlink" x="0px" y="0px"
	 viewBox="-391 93 16 16" style="enable-background:new -391 93 16 16;" xml:space="preserve">
<style type="text/css">
	.st0{fill:#337AB7;}
</style>
<path class="st0" d="M-389,95.8v1.5h12v-1.5H-389z M-389,98.8v1.5h12v-1.5H-389z M-389,101.8v1.5h12v-1.5H-389z"/>
<g>
	<path class="st0" d="M-386.6,106.4c0-0.3,0-0.7,0-1.1h0c-0.1,0.3-0.2,0.7-0.3,1l-0.3,1.1h-0.5l-0.3-1c-0.1-0.3-0.2-0.7-0.3-1.1h0
		c0,0.4,0,0.8-0.1,1.1l0,1h-0.6l0.2-2.7h0.8l0.3,0.9c0.1,0.3,0.2,0.6,0.2,1h0c0.1-0.3,0.2-0.7,0.3-1l0.3-0.9h0.8l0.2,2.7h-0.6
		L-386.6,106.4z"/>
	<path class="st0" d="M-383.4,106.3h-1v0.6h1.2v0.5h-1.8v-2.7h1.7v0.5h-1.1v0.6h1V106.3z"/>
	<path class="st0" d="M-382.5,107.4v-2.7h0.7l0.6,1c0.2,0.3,0.3,0.6,0.5,0.9h0c0-0.4-0.1-0.7-0.1-1.1v-0.8h0.6v2.7h-0.7l-0.6-1
		c-0.2-0.3-0.3-0.6-0.5-1l0,0c0,0.4,0,0.7,0,1.2v0.8H-382.5z"/>
	<path class="st0" d="M-378.7,104.8v1.6c0,0.5,0.2,0.7,0.5,0.7c0.3,0,0.5-0.2,0.5-0.7v-1.6h0.6v1.5c0,0.8-0.4,1.2-1.2,1.2
		c-0.7,0-1.1-0.4-1.1-1.2v-1.5H-378.7z"/>
</g>
</svg>
