<?xml version="1.0" encoding="utf-8"?>
<!-- Generator: Adobe Illustrator 19.1.0, SVG Export Plug-In . SVG Version: 6.00 Build 0)  -->
<svg version="1.1" id="Layer_1" xmlns="http://www.w3.org/2000/svg" xmlns:xlink="http://www.w3.org/1999/xlink" x="0px" y="0px"
	 viewBox="-152 54 708 96" style="enable-background:new -152 54 708 96;" xml:space="preserve">
<style type="text/css">
	.st0{fill:#FFFFFF;}
	.st1{fill:#EEB111;}
</style>
<g>
	<path class="st0" d="M-52.7,100.4c1.4,3.5,1.8,5,2.6,5c0.6,0,0.9-0.3,1.3-1.3l5.7-14.2c0.2-0.4,0.4-0.4,0.5-0.4
		c0.2,0,0.3,0.2,0.4,0.5l5.6,13.5c0.7,1.6,0.9,1.9,1.4,1.9c0.8,0,1.2-1,1.5-1.7l13.2-31.1c1.7-4.1,3-2.7,3-3.8
		c0-0.6-0.3-0.6-0.6-0.6c-1.2,0-2.7,0.2-4.3,0.2c-1.2,0-2.4-0.2-3.6-0.2c-0.4,0-0.6,0.4-0.6,0.8c0,1,3.3,0.7,3.3,2.9
		c0,0.6-0.1,1.1-0.4,1.7l-9.3,23c-0.5,1.1-0.8,1.9-1.1,1.9c-0.3,0-0.6-0.4-1.1-1.6l-4.3-10.6c-0.3-0.8-0.7-1.9-0.7-2.5
		c0-0.5,0-0.9,0.5-1.9l3.6-8.4c2.3-5.4,3.5-3.4,3.5-4.9c0-0.2-0.2-0.3-0.4-0.3c-0.9,0-1.5,0.2-3.7,0.2c-1.1,0-2.2-0.2-3.3-0.2
		c-0.3,0-1,0-1,0.5c0,1.1,3,0.8,3,3c0,0.5-0.3,1.3-0.5,1.8l-2.5,6c-0.3,0.7-0.6,1.3-0.7,1.3s-0.3-0.4-0.7-1.3l-2.7-6.8
		c-0.3-0.6-0.4-0.9-0.4-1.5c0-1.7,2.1-1.5,2.1-2.4c0-0.3-0.1-0.6-0.3-0.6c-1.1,0-2.5,0.2-5,0.2c-0.7,0-3.4-0.2-5.2-0.2
		c-0.5,0-0.8,0-0.8,0.6c0,1.7,3.6-0.1,5,3.3l5.1,12.3c0.3,0.7,0.5,1.3,0.5,1.6c0,0.3-0.2,1.1-0.6,2.1l-3.8,9
		c-0.2,0.6-0.5,0.9-0.7,0.9c-0.3,0-0.7-0.8-0.9-1.3l-9.7-24.1c-0.2-0.5-0.3-1-0.3-1.3c0-1.7,2.2-1.7,2.2-2.5c0-0.4-0.1-0.6-0.4-0.6
		c-1.2,0-2.5,0.2-3.7,0.2c-1.5,0-3-0.2-4.5-0.2c-0.5,0-1.2,0.2-1.2,0.8c0,1,2.5,0.4,3.7,3.4L-52.7,100.4L-52.7,100.4L-52.7,100.4z"
		/>
	<path class="st0" d="M-22.5,90c0-2.8,2.3-6.5,5.4-6.5c2.8,0,5.7,2.6,5.7,5.4c0,0.8-0.3,1-1,1h-10.1V90L-22.5,90z M-8.8,91.4
		c1.2,0,1.7,0.1,1.7-0.9c0-2.1-2.8-8.1-9.1-8.1c-6.4,0-10,5.5-10,12c0,3.4,2.7,10.5,10.4,10.5c4.6,0,9.1-3.7,9.1-4.9
		c0-0.2,0-0.4-0.2-0.4c-1.1,0-2.8,2.7-7.2,2.7c-3.1,0-8.3-2.5-8.3-11L-8.8,91.4L-8.8,91.4L-8.8,91.4z"/>
	<path class="st0" d="M1.6,94.9c2,1,4.7,1.8,4.7,4.5s-2,4.2-4.6,4.2c-5.5,0-5-6.8-6.1-6.8c-0.8,0-0.6,1.6-0.6,2.5
		c0,4.1,0,4.1,1.1,4.1c1.2,0,2.2,1.5,5.7,1.5c3.8,0,6.9-3.2,6.9-7c0-3.3-1.3-4.9-4.3-6.1C-1,89.8-2.3,88.6-2.3,87
		c0-2.1,1.6-3.3,3.6-3.3c4.7,0,5.1,4.5,5.6,4.5c0.8,0,0.6-0.6,0.6-2c0-0.4,0.1-2.1-0.3-2.5c-0.6-0.8-4.2-1.2-5-1.2
		c-3.7,0-6.9,2-6.9,6.1C-4.6,92.3-1.2,93.5,1.6,94.9L1.6,94.9L1.6,94.9z"/>
	<path class="st0" d="M12.2,99c0,5.3,3.4,5.9,5.7,5.9c3.6,0,6.4-1.7,6.4-2.5c0-0.4-0.2-0.5-0.4-0.5c-0.9,0-1.6,1.2-4.4,1.2
		c-2,0-3.5-1-3.6-3.1V85.3h6.7l0.7-1.9c0.2-0.3-0.4-0.2-1.7-0.2H16c0-3.7,0.1-4.8-0.7-4.8c-0.4,0-0.8-0.3-1,1.3
		c-0.4,3.4-3.2,4.7-3.2,5.1c0.3-0.3-0.9,0.5,1.2,0.4L12.2,99L12.2,99L12.2,99z"/>
	<path class="st0" d="M37.8,102.3c0.5,1.1,1.1,3.2,1.9,3.2c0.8,0,1.1-1.7,1.7-3l12.8-30.2c1.4-3.4,2.9-2.2,2.9-3.3
		c0-0.5-0.3-0.7-0.9-0.7c-0.7,0-1.5,0.2-3.9,0.2c-1.1,0-2.3-0.2-3.4-0.2c-0.5,0-0.8,0.2-0.8,0.7c0,1.2,3.3,0.2,3.3,2.6
		c0.2,1.1-0.4,2.7-0.7,3.5l-8.9,22c-0.3,0.6-0.4,1.4-0.9,1.4c-0.6,0-0.9-1.2-2-3.9l-9-21.1c-0.2-0.5-0.5-1.3-0.5-2
		c0-1.8,2.2-1.9,2.1-2.6c0-0.3-0.4-0.5-0.7-0.5c-0.7,0-2.7,0.2-4,0.2c-1.5,0-3.1-0.2-4.7-0.2c-0.5,0-0.7,0.3-0.7,0.7
		c0,1.1,2.7,0.2,3.9,3.2L37.8,102.3L37.8,102.3L37.8,102.3z"/>
	<path class="st0" d="M96.6,75c-0.6,0-2.2,2.2-2.2,2.7c0,0.6,1.5,2.7,2.2,2.7s2.2-2.1,2.2-2.7S97.3,75,96.6,75L96.6,75L96.6,75z"/>
	<path class="st0" d="M131.7,74.8c-0.6,0-2.2,2.2-2.2,2.7c0,0.6,1.5,2.7,2.2,2.7s2.2-2,2.2-2.7C133.9,76.8,132.4,74.8,131.7,74.8
		L131.7,74.8L131.7,74.8z"/>
	<path class="st0" d="M150.6,92.1c-12,2-12.9,5.2-12.9,7.9c0,3.6,2.2,4.9,5.5,4.9c2.9,0,5.7-1.1,7.8-3c0.7,1.7,2,2.6,4,2.6
		c0.7,0,3-0.2,3-1.3c0-0.4-0.4-0.4-0.7-0.4c-0.2,0-0.7,0.1-0.9,0.1c-2.7,0-2.2-3-2.2-4.8V87.8c0-4.4-4.9-5.3-8.1-5.3
		c-5.7-0.2-8.6,3.4-8.6,5.8c0,0.9,1.5,1.7,2.4,1.7c1,0,1.1-0.4,1.1-1s-0.3-1.3-0.3-2.1c0-2.8,2-3.1,4.5-3.1c3.2,0,5.3,1.8,5.3,4.5
		L150.6,92.1L150.6,92.1L150.6,92.1z M150.6,99.3c0,2.7-3.5,4.1-5.3,4.1c-2.7,0-4.2-1.1-4.2-4c0-4.5,6.3-5.3,9.5-6V99.3L150.6,99.3
		L150.6,99.3z"/>
	<path class="st0" d="M60.6,103.4c-0.4,0-3.8,0-3.8-2.2V82.8c0-0.5-0.3-0.8-0.6-0.8c-1.2,0-2.2,1.6-5.5,2.6c-0.3,0-0.5,0.3-0.5,0.6
		c0,1.1,2.8-0.3,2.8,2.8v12c0,4.7-2.3,2.7-2.3,4c0.1,0.5,0.4,0.6,0.8,0.6c0.6,0,1.9-0.2,3.5-0.2c2.1,0,3.7,0.2,4.8,0.2
		c0.2,0,0.4,0,0.6,0s0.2,0,0.3,0c0.4,0,1.3-0.2,4.7-0.2c2.9,0,4.1,0.2,4.8,0.2c0.6,0,0.8-0.1,0.8-0.6c0-1.6-4.6,0.8-4.6-3.9V88.8
		c0-0.7,4.1-7.8,10.3-7.6c1.8,0.1,1.5,0.2,2.8-1.7c0.5-0.8-1.9-0.8-2.9-0.7c-6.9,0.5-8.4,5.2-10.1,7.7v-0.1v-3.4
		c0-0.5-0.3-0.8-0.6-0.8c-1.2,0-2.2,1.6-6.2,2.6c-0.3,0-0.7,0.3-0.7,0.6c0,1.1,3.7-0.3,3.7,2.8v13.2
		C62.9,102.8,61.2,103.5,60.6,103.4L60.6,103.4L60.6,103.4z"/>
	<path class="st0" d="M127.6,103.4c-0.5,0-3.8,0.2-3.8-2.9V92c0-3.9-1.5-9.6-8.4-9.6c-5,0-7.5,4.4-7.4,3.8v-3.4
		c0-0.5-0.3-0.8-0.6-0.8c-1.2,0-2.2,1.6-6.5,2.6c-0.3,0-0.5,0.3-0.5,0.6c0,1.1,3.8-0.3,3.8,2.8v12.7c0,2.4-1.7,2.7-2.5,2.7
		c-0.3-0.1-3.5-0.1-3.5-2.1V82.9c0-0.5-0.3-0.8-0.6-0.8c-1.2,0-2.2,1.6-5.5,2.6c-0.3,0-0.9,1.8-0.6,1.7c1.7-0.2,2.9-1.4,2.9,1.6V100
		c0,4.7-2.3,2.7-2.3,4c0.1,0.5,0.4,0.6,0.8,0.6c0.6,0,1.9-0.2,3.5-0.2c2.1,0,3.7,0.2,4.8,0.2c0.1,0,0.4,0,0.5,0s0.2,0,0.3,0
		c0.6,0,1.6-0.2,4.4-0.2c3,0,4,0.2,4.9,0.2c0.8,0,1.1-0.1,1.1-0.7c0-1.4-4.5,0.1-4.5-3.4V88.8c-0.1-0.8,1.7-4,6-4c4.1,0,6,3.8,6,6.4
		v9.6c0,3.3-2.2,2.3-2.2,3.3c0,0.5,0.3,0.6,0.9,0.6c0.7,0,1.7-0.2,3.7-0.2c2.5,0,3.8,0.2,4.5,0.2c0.3,0,0.4,0,0.6,0s0.3,0,0.6,0
		c0.6,0,1.9-0.2,3.5-0.2c2.1,0,3.7,0.2,4.8,0.2c0.7,0,1-0.2,1-0.6c0-1.3-4-0.2-4-2.8V82.9c0-0.5-0.3-0.8-0.6-0.8
		c-1.2,0-2.2,1.6-5.5,2.6c-0.3,0-0.5,0.3-0.5,0.6c0,1.1,2.8-0.3,2.8,2.8v12C129.6,103.5,128.3,103.3,127.6,103.4L127.6,103.4
		L127.6,103.4z"/>
	<path class="st0" d="M81.6,97c-3.6,0-4.9-3.5-4.9-6.6c0-2.7,0.8-6,4.7-6c3.6,0,4.9,3.6,4.9,6.8C86.2,92.9,85.8,97,81.6,97L81.6,97z
		 M94.4,84.6c-0.2-0.4-0.7-0.4-0.9-0.4h-0.1c-1.6,0.6-3,0.8-4.1,0.8c-0.6,0-1.2-0.1-1.5-0.3c-0.4-0.2-0.8-0.4-1.1-0.6
		c-1.2-0.7-2.2-1.4-5.5-1.4c-4.9,0-8.6,3.6-8.6,8.4c0,2.6,1.2,5,3.1,6.4c-0.8,0.7-2.5,2.4-2.5,4.2c0,2.2,0.8,3.8,2.1,4.4
		c1.1,0.6,3.4,1,6.8,1.1c5.5,0.2,6.7,0.4,6.7,2.1c0,0.8-0.4,4.7-8.2,4.7c-2,0-6.5-0.4-6.5-3.8c0-1.2,0.1-1.3,0.7-2.1
		c0.2-0.2,0.2-0.5,0.1-0.8s-0.5-0.5-0.9-0.5c-0.1,0-0.1,0-0.3,0c-1,0.3-2.5,0.8-2.5,3.3c0,4.6,5.9,5.8,9,5.8
		c8.6,0,11.6-4.2,11.6-7.8c0-4.9-5.3-4.9-8.2-4.9c-0.4,0-0.8,0-1.2,0s-0.7,0-1.1,0c-3.5,0-4.9-0.6-5.4-1.1c-0.3-0.4-0.3-0.7-0.3-1
		c0-1,1.1-2.5,2.1-2.5c0.2,0,0.3,0,0.6,0.1c0.5,0.1,1.2,0.3,3,0.3c5.1,0,8.9-3.4,8.9-8.2c0-0.8-0.1-1.7-0.4-2.9
		c-0.1-0.2-0.2-0.4-0.3-0.6c-0.1-0.1-0.1-0.3-0.2-0.4c1.7-0.2,4.7-0.9,4.8-1.5C94.4,85.3,94.6,84.9,94.4,84.6L94.4,84.6z"/>
	<path class="st0" d="M269.7,103.4c-0.3,0.1-0.6,0.8,0,1.1c0.2,0.1-0.1,0,0.1,0s0.2,0,0.3,0c0.4,0,1.3-0.2,4.7-0.2
		c2.9,0,4.1,0.2,4.8,0.2c0.6,0,0.8-0.1,0.8-0.6c0-1.6-4.6,0.8-4.6-3.9V88.6c0-0.7,4.1-7.8,10.3-7.6c1.8,0.1,1.5,0.2,2.8-1.7
		c0.5-0.8-1.9-0.8-2.9-0.7c-6.9,0.6-8.4,5.2-10.1,7.7v-0.1v-3.4c0-0.5-0.3-0.8-0.6-0.8c-1.2,0-2.2,1.6-6.1,2.6
		c-0.3,0.1-0.7,0.3-0.7,0.6c0,1.1,3.7-0.3,3.7,2.8v13.2C272.2,102.8,270.3,103.3,269.7,103.4L269.7,103.4L269.7,103.4z"/>
	<path class="st0" d="M336.6,86.4c1-3.1,2.8-1.8,2.8-3c0-0.4-0.4-0.6-1-0.6c-0.5,0-1.4,0.2-2.6,0.2c-1.4,0-2.3-0.2-2.9-0.2
		c-0.9,0-1.5,0-1.5,0.6c0,1.1,3.3,0.4,3.3,3.1c0,0.4,0,0.8-0.6,2.7c-3.5,11.1-3.9,11.6-3.9,11.6L324.6,87l0.1-0.1
		c0.1,0.5-0.4-0.3-0.4-1.1c0-2,2.9-1,2.9-2.1c0-0.6-0.3-0.7-1.1-0.7c-0.8,0-2,0.2-3.8,0.2c-1.4,0-2.5-0.1-3.6-0.1
		c-0.7,0-0.8,0.1-1,0.5c-1.3,2.6,1.9,0.8,2.4,1.9l6.7,16.5c0.5,1.1,1,2.2,1,3.4c0,4-4.8,12.8-12.6,11.8c-0.3,0-0.9-0.2-1.1,0.1
		c0.2,0.1-0.7-0.2,0.9,2.1c0.6,0.5,1.7,0.7,3.5,0.3c5.3-1.2,8.8-6.5,8.9-6.6C330.3,109,336.6,86.4,336.6,86.4L336.6,86.4L336.6,86.4
		z"/>
	<path class="st0" d="M165.6,72.4c0-3.7,3.4-2.3,3.4-3.7c0-0.6-1.4-0.5-1.6-0.5c-1.6,0-3.2,0.2-4.9,0.2c-1.4,0-2.7-0.2-4-0.2
		c-0.3,0-1.1,0.2-1.1,0.5c0,1.6,4.2,0.4,4.2,3.4v17.3c0,7.9,2.6,15.4,16,15.4c14.9,0,14.3-12.7,14.3-15.2V73.8c0-4.7,3-3.6,3-5
		c0-0.3-0.4-0.6-0.7-0.6c-0.9,0-1.8,0.2-2.8,0.2c-2,0-4-0.2-6-0.2c-0.2,0-0.5,0.3-0.5,0.5c0,1.9,4.8-0.2,4.8,5v16.6
		c0,6-2.2,12.4-11.8,12.4c-6.9,0-12.2-3.7-12.2-11.9L165.6,72.4L165.6,72.4L165.6,72.4z"/>
	<path class="st0" d="M253.1,90c0-2.8,2.3-6.5,5.4-6.5c2.8,0,5.7,2.6,5.7,5.4c0,0.8-0.3,1-1,1h-10.1V90L253.1,90z M266.8,91.3
		c1.2,0,1.7,0,1.7-0.9c0-2.1-2.8-8.1-9.1-8.1c-6.4,0-10,5.5-10,12c0,3.4,2.7,10.5,10.4,10.5c4.6,0,9.1-3.7,9.1-4.9
		c0-0.2,0-0.4-0.2-0.4c-1.1,0-2.8,2.7-7.2,2.7c-3.1,0-8.2-2.5-8.2-11L266.8,91.3L266.8,91.3L266.8,91.3z"/>
	<path class="st0" d="M289.4,94.8c2.1,1,4.7,1.8,4.7,4.5s-2,4.2-4.6,4.2c-5.5,0-5-6.8-6.1-6.8c-0.8,0-0.6,1.6-0.6,2.5
		c0,4,0,4.1,1.1,4.1c1.2,0,2.2,1.5,5.7,1.5c3.8,0,6.9-3.2,6.9-7c0-3.3-1.3-4.9-4.3-6.1c-5.4-2.2-6.7-3.2-6.7-4.9
		c0-2.1,1.6-3.3,3.6-3.3c4.7,0,5.1,4.5,5.6,4.5c0.8,0,0.6-0.6,0.6-2c0-0.4,0.1-2.1-0.3-2.5c-0.6-0.8-4.2-1.2-5-1.2
		c-3.7,0-6.9,2-6.9,6.1C283.2,92.1,286.7,93.4,289.4,94.8L289.4,94.8L289.4,94.8z"/>
	<path class="st0" d="M309.8,98.9c0,5.3,3.4,5.9,5.7,5.9c3.6,0,6.4-1.7,6.4-2.5c0-0.4-0.2-0.5-0.4-0.5c-0.9,0-1.6,1.2-4.4,1.2
		c-2.1,0-3.5-1-3.6-3.1V85.1h6.7l0.7-1.9c0.2-0.3-0.4-0.2-1.7-0.2h-5.6c0-3.7,0-4.8-0.7-4.8c-0.4,0-0.8-0.3-1,1.3
		c-0.4,3.4-3.2,4.7-3.2,5.1c0.3-0.3-0.9,0.5,1.2,0.4v13.9H309.8L309.8,98.9z"/>
	<path class="st0" d="M236.3,87.8c-0.6-1.5-0.9-2.3-0.9-2.5c0-1.5,2.9-0.9,2.9-1.9c0-0.6-0.5-0.6-1.2-0.6c-0.6,0-1.3,0.2-3.1,0.2
		c-3.3,0-3.3-0.2-4.3-0.2s-1.1,0.3-1.1,0.6c0,0.9,1.8,0.2,2.8,2.4l7.6,17.4c0.1,0.4,0.4,1.2,1,1.2c0.8,0,0.8-0.6,1.7-2.7l7.7-16.4
		c0.7-1.5,2.5-1.2,2.5-1.9c0-0.7-0.9-0.8-1.4-0.8c-0.9,0-1.8,0.2-2.6,0.2c-1.1,0-2.1-0.2-3.1-0.2c-0.7,0-1.2,0-1.2,0.7
		c0,1.3,3.1-0.1,3.1,2.7c0,2.3-1.3,4.4-2.2,6.4l-3.4,7.3L236.3,87.8L236.3,87.8L236.3,87.8z"/>
	<path class="st0" d="M221,104.5c0.2,0,0.2,0,0.5,0c0.6,0,1.9-0.2,3.5-0.2c2.1,0,3.7,0.2,4.8,0.2c0.7,0,1-0.2,1-0.6
		c0-1.3-4-0.2-4-2.8V82.8c0-0.5-0.3-0.8-0.6-0.8c-1.2,0-2.2,1.6-5.5,2.6c-0.3,0.1-0.5,0.3-0.5,0.6c0,1.1,2.8-0.3,2.8,2.8V100
		c0,3.5-1.3,3.3-1.9,3.3c-0.2,0-3.9,0.2-3.9-2.9v-8.5c0-3.9-1.5-9.6-8.4-9.6c-5,0-7.5,4.4-7.4,3.8v-3.4c0-0.5-0.3-0.8-0.6-0.8
		c-1.2,0-2.2,1.6-6.5,2.6c-0.3,0.1-0.5,0.3-0.5,0.6c0,1.1,3.8-0.3,3.8,2.8v12.7c0,3.3-3,2.3-3,3.3c0,0.5,0.3,0.6,0.9,0.6
		s1.6-0.2,4.4-0.2c3,0,4,0.2,4.9,0.2c0.8,0,1.1-0.1,1.1-0.7c0-1.4-4.5,0.1-4.5-3.4V88.6c-0.1-0.8,1.7-4,6-4c4.2,0,6,3.8,6,6.4v9.6
		c0,3.3-2.2,2.3-2.2,3.3c0,0.5,0.3,0.6,0.9,0.6s1.7-0.2,3.7-0.2c2.5,0,3.8,0.2,4.5,0.2C220.5,104.5,220.9,104.5,221,104.5L221,104.5
		L221,104.5z"/>
	<path class="st0" d="M225.2,75c-0.6,0-2.2,2.2-2.2,2.7c0,0.6,1.5,2.7,2.2,2.7s2.2-2,2.2-2.7C227.3,77.1,225.9,75,225.2,75L225.2,75
		L225.2,75z"/>
	<path class="st0" d="M300.5,99.8c0,4.7-2.3,2.7-2.3,4c0,0.5,0.4,0.6,0.8,0.6c0.6,0,1.9-0.2,3.5-0.2c2.1,0,3.7,0.2,4.8,0.2
		c0.7,0,1-0.2,1-0.6c0-1.3-4.1-0.2-4.1-2.8V82.6c0-0.5-0.3-0.8-0.6-0.8c-1.2,0-2.2,1.6-5.5,2.6c-0.3,0.1-0.5,0.3-0.5,0.6
		c0,1.1,2.8-0.3,2.8,2.8v12L300.5,99.8L300.5,99.8z"/>
	<path class="st0" d="M302.6,75c-0.6,0-2.2,2.2-2.2,2.7c0,0.6,1.5,2.7,2.2,2.7s2.2-2,2.2-2.7C304.7,77.1,303.2,75,302.6,75L302.6,75
		L302.6,75z"/>
	<path class="st0" d="M336.7,102.3V101h0.8c0.4,0,0.9,0.1,0.9,0.6c0,0.6-0.5,0.7-1,0.7L336.7,102.3L336.7,102.3L336.7,102.3z
		 M336.7,102.8h0.7l1.1,1.8h0.7l-1.1-1.8c0.6-0.1,1-0.4,1-1.1c0-0.8-0.5-1.2-1.4-1.2h-1.6v4h0.6V102.8L336.7,102.8L336.7,102.8z
		 M334.6,102.4c0-1.7,1.2-2.9,2.9-2.9c1.6,0,2.8,1.2,2.8,2.9c0,1.7-1.3,2.9-2.8,2.9C335.8,105.4,334.6,104.1,334.6,102.4
		L334.6,102.4L334.6,102.4z M337.4,105.9c1.9,0,3.5-1.5,3.5-3.5s-1.6-3.5-3.5-3.5s-3.6,1.5-3.6,3.5
		C333.9,104.5,335.5,105.9,337.4,105.9L337.4,105.9L337.4,105.9z"/>
	<path class="st1" d="M-73.5,55.8h-12.9h-0.8c-2.4,0-3.3,0.9-4,2l-10.1,15l-9.8-14.7l-0.3-0.5c0,0-0.3-0.4-0.7-0.4l0,0l0,0l0,0l0,0
		c-0.5-0.1-0.8,0.4-0.8,0.4l-0.3,0.5l-9.4,14.8l-10.5-15.1c-0.7-1.1-1.6-2-4-2h-0.8h-12.9V68h7.6c1.6,0,2.3,0.1,3.5,1.4l0.5,0.7
		l15.3,24.1c0,0,0.5,0.8,1.3,0.8c0.9,0,1.4-0.8,1.4-0.8l9-13.4l0,0l0,0l0,0l0,0l9.3,13.4c0,0,0.5,0.8,1.3,0.8s1.3-0.8,1.3-0.8
		l15.2-24.1l0.5-0.7c0.8-1.2,1.8-1.4,3.4-1.3h7.6L-73.5,55.8L-73.5,55.8z"/>
	<path class="st1" d="M-93,90.3l-8.3,13.2L-112,87.9l-8.2,12.1l17.3,27.2c0.6,1,1.1,1.2,1.3,1.2c0.5,0,0.8-0.3,1.4-1.2l13.6-24.8
		c1.2-2.2,3.2-2.1,3.2-2.1h9.8V88h-15.2C-91.6,87.9-93,90.3-93,90.3L-93,90.3z"/>
</g>
<g>
	<path class="st0" d="M-64.4,128.3l3.9,16.6l4.6-16.6h3l4.6,16.6l3.9-16.6h3l-5.4,20.4h-2.9l-4.7-16.9l-4.7,16.9H-62l-5.3-20.4
		H-64.4z"/>
	<path class="st0" d="M-39.3,128.3h14.9v2.5h-12.2v6.2h11.3v2.4h-11.3v6.9h12.4v2.4h-15.1V128.3z"/>
	<path class="st0" d="M-19.5,142.2c0.1,1.2,0.3,2.1,0.8,2.8c0.9,1.4,2.5,2,4.9,2c1,0,2-0.1,2.8-0.4c1.7-0.6,2.5-1.6,2.5-3.1
		c0-1.1-0.4-1.9-1.1-2.4c-0.7-0.5-1.8-0.9-3.3-1.2l-2.8-0.6c-1.8-0.4-3.1-0.9-3.8-1.4c-1.3-0.9-1.9-2.1-1.9-3.8
		c0-1.8,0.6-3.3,1.9-4.5c1.3-1.2,3.1-1.8,5.4-1.8c2.1,0,4,0.5,5.5,1.6c1.5,1,2.2,2.7,2.2,5H-9c-0.1-1.1-0.4-1.9-0.9-2.5
		c-0.8-1.1-2.3-1.6-4.3-1.6c-1.6,0-2.8,0.3-3.5,1s-1.1,1.5-1.1,2.4c0,1,0.4,1.7,1.3,2.2c0.5,0.3,1.8,0.7,3.7,1.1l2.9,0.7
		c1.4,0.3,2.4,0.7,3.2,1.3c1.3,1,1.9,2.3,1.9,4.2c0,2.3-0.8,3.9-2.5,4.9c-1.6,1-3.6,1.5-5.7,1.5c-2.5,0-4.5-0.6-6-1.9
		c-1.4-1.3-2.1-3-2.1-5.1c0,0,0-0.1,0-0.1H-19.5z"/>
	<path class="st0" d="M11.8,128.3v2.4H4.9v18H2.1v-18h-6.9v-2.4H11.8z"/>
	<path class="st0" d="M21.8,128.3l5.9,17.4l5.8-17.4h3.1l-7.5,20.4h-2.9l-7.4-20.4H21.8z"/>
	<path class="st0" d="M39,128.3h2.8v20.4H39V128.3z"/>
	<path class="st0" d="M45.9,128.3h9.5c1.6,0,2.8,0.2,3.9,0.7c1.9,0.9,2.9,2.5,2.9,4.8c0,1.2-0.3,2.2-0.8,3c-0.5,0.8-1.2,1.4-2.1,1.9
		c0.8,0.3,1.4,0.8,1.8,1.3c0.4,0.5,0.6,1.4,0.7,2.6l0.1,2.7c0,0.8,0.1,1.4,0.2,1.7c0.2,0.6,0.5,1.1,0.9,1.3v0.5h-3.4
		c-0.1-0.2-0.2-0.4-0.2-0.7s-0.1-0.8-0.1-1.6l-0.2-3.4c-0.1-1.3-0.6-2.2-1.5-2.7c-0.5-0.3-1.4-0.4-2.5-0.4h-6.3v8.8h-2.8V128.3z
		 M55.1,137.7c1.3,0,2.3-0.3,3.1-0.8s1.1-1.5,1.1-2.8c0-1.5-0.5-2.4-1.6-3c-0.6-0.3-1.3-0.4-2.3-0.4h-6.8v7H55.1z"/>
	<path class="st0" d="M79.2,128.9c2,1.1,3.3,2.9,3.7,5.6h-2.7c-0.3-1.5-1-2.6-2.1-3.3c-1-0.7-2.4-1-4-1c-1.9,0-3.5,0.7-4.8,2.1
		c-1.3,1.4-1.9,3.5-1.9,6.3c0,2.4,0.5,4.4,1.6,5.9s2.8,2.3,5.2,2.3c1.8,0,3.4-0.5,4.6-1.6s1.8-2.8,1.9-5.2h-6.4v-2.3h9v10.9h-1.8
		l-0.7-2.6c-0.9,1-1.8,1.7-2.5,2.1c-1.2,0.7-2.8,1-4.6,1c-2.4,0-4.5-0.8-6.2-2.4c-1.9-2-2.8-4.7-2.8-8.1c0-3.4,0.9-6.1,2.8-8.2
		c1.8-1.9,4-2.9,6.8-2.9C76.1,127.8,77.8,128.2,79.2,128.9z"/>
	<path class="st0" d="M87.4,128.3h2.8v20.4h-2.8V128.3z"/>
	<path class="st0" d="M93.9,128.3h3.3l10.3,16.6v-16.6h2.6v20.4h-3.1l-10.5-16.5v16.5h-2.6V128.3z"/>
	<path class="st0" d="M114.4,128.3h2.8v20.4h-2.8V128.3z"/>
	<path class="st0" d="M126.8,128.3h3.1l7.4,20.4h-3l-2.1-6.1h-8.1l-2.2,6.1h-2.8L126.8,128.3z M131.4,140.4l-3.1-9l-3.3,9H131.4z"/>
	<path class="st0" d="M146.2,132.9c0-1.3,0.4-2.4,1.3-3.3c0.9-0.9,2.1-1.3,3.6-1.3c1.4,0,2.5,0.4,3.3,1.2s1.2,1.8,1.2,2.9
		c0,1.3-0.4,2.5-1.2,3.4c-0.5,0.6-1.3,1.2-2.4,2l3.7,4.5c0.3-0.7,0.4-1.3,0.5-1.7c0.1-0.4,0.2-0.9,0.3-1.5h2.4
		c-0.2,1.3-0.5,2.6-0.9,3.8c-0.4,1-0.6,1.5-0.7,1.5c0,0,0,0,0-0.1l3.6,4.4h-3.2l-1.9-2.3c-0.8,0.8-1.5,1.4-2.1,1.8
		c-1.1,0.7-2.4,1-3.8,1c-2.1,0-3.7-0.6-4.6-1.7c-1-1.1-1.4-2.4-1.4-3.9c0-1.5,0.5-2.8,1.4-3.9c0.6-0.6,1.6-1.4,3.2-2.4
		c-0.9-1-1.4-1.8-1.7-2.5C146.4,134.2,146.2,133.6,146.2,132.9z M154.4,144.7l-4.6-5.6c-1.3,0.9-2.2,1.5-2.6,2
		c-0.6,0.7-0.9,1.5-0.9,2.5c0,1.1,0.4,1.9,1.2,2.5c0.8,0.6,1.6,0.9,2.5,0.9c1,0,1.9-0.2,2.7-0.7C153.4,145.9,154,145.3,154.4,144.7z
		 M152.5,134.8c0.5-0.6,0.8-1.3,0.8-2.1c0-0.6-0.2-1.1-0.6-1.6c-0.4-0.4-0.9-0.7-1.6-0.7c-1,0-1.7,0.3-2.1,1
		c-0.2,0.4-0.3,0.7-0.3,1.2c0,0.6,0.2,1.1,0.5,1.6c0.3,0.5,0.8,1.2,1.6,2C151.6,135.7,152.2,135.1,152.5,134.8z"/>
	<path class="st0" d="M170.4,128.3h9.5c1.6,0,2.8,0.2,3.9,0.7c1.9,0.9,2.9,2.5,2.9,4.8c0,1.2-0.3,2.2-0.8,3s-1.2,1.4-2.1,1.9
		c0.8,0.3,1.4,0.8,1.8,1.3c0.4,0.5,0.6,1.4,0.7,2.6l0.1,2.7c0,0.8,0.1,1.4,0.2,1.7c0.2,0.6,0.5,1.1,0.9,1.3v0.5H184
		c-0.1-0.2-0.2-0.4-0.2-0.7s-0.1-0.8-0.1-1.6l-0.2-3.4c-0.1-1.3-0.6-2.2-1.5-2.7c-0.5-0.3-1.4-0.4-2.5-0.4h-6.3v8.8h-2.8V128.3z
		 M179.6,137.7c1.3,0,2.3-0.3,3.1-0.8s1.1-1.5,1.1-2.8c0-1.5-0.5-2.4-1.6-3c-0.6-0.3-1.3-0.4-2.3-0.4h-6.8v7H179.6z"/>
	<path class="st0" d="M190.2,128.3h14.9v2.5h-12.2v6.2h11.3v2.4h-11.3v6.9h12.4v2.4h-15.1V128.3z"/>
	<path class="st0" d="M222,128.9c2,1.1,3.3,2.9,3.7,5.6H223c-0.3-1.5-1-2.6-2.1-3.3c-1-0.7-2.4-1-4-1c-1.9,0-3.5,0.7-4.8,2.1
		c-1.3,1.4-1.9,3.5-1.9,6.3c0,2.4,0.5,4.4,1.6,5.9s2.8,2.3,5.2,2.3c1.8,0,3.4-0.5,4.6-1.6c1.2-1.1,1.8-2.8,1.9-5.2h-6.4v-2.3h9v10.9
		h-1.8l-0.7-2.6c-0.9,1-1.8,1.7-2.5,2.1c-1.2,0.7-2.8,1-4.6,1c-2.4,0-4.5-0.8-6.2-2.4c-1.9-2-2.8-4.7-2.8-8.1c0-3.4,0.9-6.1,2.8-8.2
		c1.8-1.9,4-2.9,6.8-2.9C218.9,127.8,220.6,128.2,222,128.9z"/>
	<path class="st0" d="M230.2,128.3h2.8v20.4h-2.8V128.3z"/>
	<path class="st0" d="M253.5,131.2c1.4,1.8,2,4.1,2,6.9c0,3.1-0.8,5.6-2.3,7.6c-1.8,2.4-4.4,3.6-7.8,3.6c-3.1,0-5.6-1-7.4-3.1
		c-1.6-2-2.4-4.5-2.4-7.6c0-2.8,0.7-5.1,2.1-7.1c1.8-2.5,4.4-3.8,7.8-3.8C249.1,127.8,251.8,128.9,253.5,131.2z M252.7,138.2
		c0-2.4-0.6-4.3-1.9-5.8c-1.3-1.5-3-2.2-5.2-2.2c-2.1,0-3.8,0.7-5.2,2.2s-2,3.6-2,6.4c0,2.3,0.6,4.2,1.7,5.7c1.1,1.6,3,2.3,5.6,2.3
		c2.4,0,4.2-0.9,5.3-2.6C252.2,142.5,252.7,140.5,252.7,138.2z"/>
	<path class="st0" d="M258.1,128.3h3.3l10.3,16.6v-16.6h2.6v20.4h-3.1l-10.5-16.5v16.5h-2.6V128.3z"/>
	<path class="st0" d="M283.8,128.3h3.1l7.4,20.4h-3l-2.1-6.1h-8.1l-2.2,6.1h-2.8L283.8,128.3z M288.4,140.4l-3.1-9l-3.3,9H288.4z"/>
	<path class="st0" d="M296.1,128.3h2.8v18h10.4v2.4h-13.1V128.3z"/>
	<path class="st0" d="M317.4,128.3h2.8v8.4h10.6v-8.4h2.8v20.4h-2.8v-9.6h-10.6v9.6h-2.8V128.3z"/>
	<path class="st0" d="M337.8,128.3h2.8v20.4h-2.8V128.3z"/>
	<path class="st0" d="M346.1,142.2c0.1,1.2,0.3,2.1,0.8,2.8c0.9,1.4,2.5,2,4.9,2c1,0,2-0.1,2.8-0.4c1.7-0.6,2.5-1.6,2.5-3.1
		c0-1.1-0.4-1.9-1.1-2.4c-0.7-0.5-1.8-0.9-3.3-1.2l-2.8-0.6c-1.8-0.4-3.1-0.9-3.8-1.4c-1.3-0.9-1.9-2.1-1.9-3.8
		c0-1.8,0.6-3.3,1.9-4.5c1.3-1.2,3.1-1.8,5.4-1.8c2.1,0,4,0.5,5.5,1.6c1.5,1,2.2,2.7,2.2,5h-2.6c-0.1-1.1-0.4-1.9-0.9-2.5
		c-0.8-1.1-2.3-1.6-4.3-1.6c-1.6,0-2.8,0.3-3.5,1c-0.7,0.7-1.1,1.5-1.1,2.4c0,1,0.4,1.7,1.3,2.2c0.5,0.3,1.8,0.7,3.7,1.1l2.9,0.7
		c1.4,0.3,2.4,0.7,3.2,1.3c1.3,1,1.9,2.3,1.9,4.2c0,2.3-0.8,3.9-2.5,4.9c-1.6,1-3.6,1.5-5.7,1.5c-2.5,0-4.5-0.6-6-1.9
		c-1.4-1.3-2.1-3-2.1-5.1c0,0,0-0.1,0-0.1H346.1z"/>
	<path class="st0" d="M377.4,128.3v2.4h-6.9v18h-2.8v-18h-6.9v-2.4H377.4z"/>
	<path class="st0" d="M395.5,131.2c1.4,1.8,2,4.1,2,6.9c0,3.1-0.8,5.6-2.3,7.6c-1.8,2.4-4.4,3.6-7.8,3.6c-3.1,0-5.6-1-7.4-3.1
		c-1.6-2-2.4-4.5-2.4-7.6c0-2.8,0.7-5.1,2.1-7.1c1.8-2.5,4.4-3.8,7.8-3.8C391.1,127.8,393.7,128.9,395.5,131.2z M394.7,138.2
		c0-2.4-0.6-4.3-1.9-5.8c-1.3-1.5-3-2.2-5.2-2.2c-2.1,0-3.8,0.7-5.2,2.2s-2,3.6-2,6.4c0,2.3,0.6,4.2,1.7,5.7c1.1,1.6,3,2.3,5.6,2.3
		c2.4,0,4.2-0.9,5.3-2.6C394.1,142.5,394.7,140.5,394.7,138.2z"/>
	<path class="st0" d="M400.4,128.3h9.5c1.6,0,2.8,0.2,3.9,0.7c1.9,0.9,2.9,2.5,2.9,4.8c0,1.2-0.3,2.2-0.8,3s-1.2,1.4-2.1,1.9
		c0.8,0.3,1.4,0.8,1.8,1.3c0.4,0.5,0.6,1.4,0.7,2.6l0.1,2.7c0,0.8,0.1,1.4,0.2,1.7c0.2,0.6,0.5,1.1,0.9,1.3v0.5H414
		c-0.1-0.2-0.2-0.4-0.2-0.7s-0.1-0.8-0.1-1.6l-0.2-3.4c-0.1-1.3-0.6-2.2-1.5-2.7c-0.5-0.3-1.4-0.4-2.5-0.4h-6.3v8.8h-2.8V128.3z
		 M409.5,137.7c1.3,0,2.3-0.3,3.1-0.8s1.1-1.5,1.1-2.8c0-1.5-0.5-2.4-1.6-3c-0.6-0.3-1.3-0.4-2.3-0.4h-6.8v7H409.5z"/>
	<path class="st0" d="M417.8,128.3h3.2l5.9,9.8l5.9-9.8h3.2l-7.7,12.2v8.2h-2.8v-8.2L417.8,128.3z"/>
	<path class="st0" d="M461.2,134.5h-2.7c-0.3-1.3-0.9-2.4-1.8-3.1c-0.9-0.8-2.2-1.2-3.8-1.2c-2,0-3.6,0.7-4.9,2.1
		c-1.2,1.4-1.9,3.6-1.9,6.5c0,2.4,0.6,4.3,1.7,5.8c1.1,1.5,2.8,2.2,5,2.2c2,0,3.6-0.8,4.7-2.4c0.6-0.8,1-1.9,1.3-3.3h2.7
		c-0.2,2.2-1,4-2.4,5.4c-1.6,1.8-3.8,2.6-6.6,2.6c-2.4,0-4.4-0.7-6-2.2c-2.1-1.9-3.2-4.8-3.2-8.8c0-3,0.8-5.5,2.4-7.4
		c1.7-2.1,4.1-3.1,7.1-3.1c2.6,0,4.6,0.7,6,2C460.3,131.2,461.1,132.7,461.2,134.5z"/>
	<path class="st0" d="M464.3,128.3h14.9v2.5H467v6.2h11.3v2.4H467v6.9h12.4v2.4h-15.1V128.3z"/>
	<path class="st0" d="M482.3,128.3h3.3l10.3,16.6v-16.6h2.6v20.4h-3.1l-10.5-16.5v16.5h-2.6V128.3z"/>
	<path class="st0" d="M517,128.3v2.4h-6.9v18h-2.8v-18h-6.9v-2.4H517z"/>
	<path class="st0" d="M519,128.3h14.9v2.5h-12.2v6.2H533v2.4h-11.3v6.9h12.4v2.4H519V128.3z"/>
	<path class="st0" d="M537.3,128.3h9.5c1.6,0,2.8,0.2,3.9,0.7c1.9,0.9,2.9,2.5,2.9,4.8c0,1.2-0.3,2.2-0.8,3s-1.2,1.4-2.1,1.9
		c0.8,0.3,1.4,0.8,1.8,1.3c0.4,0.5,0.6,1.4,0.7,2.6l0.1,2.7c0,0.8,0.1,1.4,0.2,1.7c0.2,0.6,0.5,1.1,0.9,1.3v0.5h-3.4
		c-0.1-0.2-0.2-0.4-0.2-0.7s-0.1-0.8-0.1-1.6l-0.2-3.4c-0.1-1.3-0.6-2.2-1.5-2.7c-0.5-0.3-1.4-0.4-2.5-0.4h-6.3v8.8h-2.8V128.3z
		 M546.5,137.7c1.3,0,2.3-0.3,3.1-0.8s1.1-1.5,1.1-2.8c0-1.5-0.5-2.4-1.6-3c-0.6-0.3-1.3-0.4-2.3-0.4h-6.8v7H546.5z"/>
</g>
</svg>
