<?xml version="1.0" encoding="utf-8"?>
<!-- Generator: Adobe Illustrator 18.1.1, SVG Export Plug-In . SVG Version: 6.00 Build 0)  -->
<svg version="1.1" id="Layer_1" xmlns="http://www.w3.org/2000/svg" xmlns:xlink="http://www.w3.org/1999/xlink" x="0px" y="0px"
	 width="494px" height="94px" viewBox="-138 350 494 94" style="enable-background:new -138 350 494 94;" xml:space="preserve">
<style type="text/css">
	.st0{fill:#FFFFFF;}
	.st1{fill:#EEB111;}
</style>
<g>
	<path class="st0" d="M-38.8,395.4c1.4,3.5,1.8,5,2.6,5c0.6,0,0.9-0.3,1.3-1.3l5.7-14.2c0.2-0.4,0.4-0.4,0.5-0.4
		c0.2,0,0.3,0.2,0.4,0.5l5.6,13.5c0.7,1.6,0.9,1.9,1.4,1.9c0.8,0,1.2-1,1.5-1.7l13.2-31.1c1.7-4.1,3-2.7,3-3.8
		c0-0.6-0.3-0.6-0.6-0.6c-1.2,0-2.7,0.2-4.3,0.2c-1.2,0-2.4-0.2-3.6-0.2c-0.4,0-0.6,0.4-0.6,0.8c0,1,3.3,0.7,3.3,2.9
		c0,0.6-0.1,1.1-0.4,1.7l-9.3,23c-0.5,1.1-0.8,1.9-1.1,1.9c-0.3,0-0.6-0.4-1.1-1.6l-4.3-10.6c-0.3-0.8-0.7-1.9-0.7-2.5
		c0-0.5,0-0.9,0.5-1.9l3.6-8.4c2.3-5.4,3.5-3.4,3.5-4.9c0-0.2-0.2-0.3-0.4-0.3c-0.9,0-1.5,0.2-3.7,0.2c-1.1,0-2.2-0.2-3.3-0.2
		c-0.3,0-1,0-1,0.5c0,1.1,3,0.8,3,3c0,0.5-0.3,1.3-0.5,1.8l-2.5,6c-0.3,0.7-0.6,1.3-0.7,1.3s-0.3-0.4-0.7-1.3l-2.7-6.8
		c-0.3-0.6-0.4-0.9-0.4-1.5c0-1.7,2.1-1.5,2.1-2.4c0-0.3-0.1-0.6-0.3-0.6c-1.1,0-2.5,0.2-5,0.2c-0.7,0-3.4-0.2-5.2-0.2
		c-0.5,0-0.8,0-0.8,0.6c0,1.7,3.6-0.1,5,3.3l5.1,12.3c0.3,0.7,0.5,1.3,0.5,1.6c0,0.3-0.2,1.1-0.6,2.1l-3.8,9
		c-0.2,0.6-0.5,0.9-0.7,0.9c-0.3,0-0.7-0.8-0.9-1.3l-9.7-24.1c-0.2-0.5-0.3-1-0.3-1.3c0-1.7,2.2-1.7,2.2-2.5c0-0.4-0.1-0.6-0.4-0.6
		c-1.2,0-2.5,0.2-3.7,0.2c-1.5,0-3-0.2-4.5-0.2c-0.5,0-1.2,0.2-1.2,0.8c0,1,2.5,0.4,3.7,3.4L-38.8,395.4L-38.8,395.4L-38.8,395.4z"
		/>
	<path class="st0" d="M-8.6,385c0-2.8,2.3-6.5,5.4-6.5c2.8,0,5.7,2.6,5.7,5.4c0,0.8-0.3,1-1,1H-8.6V385L-8.6,385z M5.1,386.4
		c1.2,0,1.7,0.1,1.7-0.9c0-2.1-2.8-8.1-9.1-8.1c-6.4,0-10,5.5-10,12c0,3.4,2.7,10.5,10.4,10.5c4.6,0,9.1-3.7,9.1-4.9
		c0-0.2,0-0.4-0.2-0.4c-1.1,0-2.8,2.7-7.2,2.7c-3.1,0-8.3-2.5-8.3-11H5.1V386.4L5.1,386.4z"/>
	<path class="st0" d="M15.5,389.9c2,1,4.7,1.8,4.7,4.5c0,2.7-2,4.2-4.6,4.2c-5.5,0-5-6.8-6.1-6.8c-0.8,0-0.6,1.6-0.6,2.5
		c0,4.1,0,4.1,1.1,4.1c1.2,0,2.2,1.5,5.7,1.5c3.8,0,6.9-3.2,6.9-7c0-3.3-1.3-4.9-4.3-6.1c-5.4-2.1-6.7-3.2-6.7-4.9
		c0-2.1,1.6-3.3,3.6-3.3c4.7,0,5.1,4.5,5.6,4.5c0.8,0,0.6-0.6,0.6-2c0-0.4,0.1-2.1-0.3-2.5c-0.6-0.8-4.2-1.2-5-1.2
		c-3.7,0-6.9,2-6.9,6.1C9.3,387.2,12.7,388.5,15.5,389.9L15.5,389.9L15.5,389.9z"/>
	<path class="st0" d="M26.1,394c0,5.3,3.4,5.9,5.7,5.9c3.6,0,6.4-1.7,6.4-2.5c0-0.4-0.2-0.5-0.4-0.5c-0.9,0-1.6,1.2-4.4,1.2
		c-2,0-3.5-1-3.6-3.1v-14.8h6.7l0.7-1.9c0.2-0.3-0.4-0.2-1.7-0.2h-5.6c0-3.7,0.1-4.8-0.7-4.8c-0.4,0-0.8-0.3-1,1.3
		c-0.4,3.4-3.2,4.7-3.2,5.1c0.3-0.3-0.9,0.5,1.2,0.4L26.1,394L26.1,394L26.1,394z"/>
	<path class="st0" d="M51.7,397.2c0.5,1.1,1.1,3.2,1.9,3.2c0.8,0,1.1-1.7,1.7-3l12.8-30.2c1.4-3.4,2.9-2.2,2.9-3.3
		c0-0.5-0.3-0.7-0.9-0.7c-0.7,0-1.5,0.2-3.9,0.2c-1.1,0-2.3-0.2-3.4-0.2c-0.5,0-0.8,0.2-0.8,0.7c0,1.2,3.3,0.2,3.3,2.6
		c0.2,1.1-0.4,2.7-0.7,3.5l-8.9,22c-0.3,0.6-0.4,1.4-0.9,1.4c-0.6,0-0.9-1.2-2-3.9l-9-21.1c-0.2-0.5-0.5-1.3-0.5-2
		c0-1.8,2.2-1.9,2.1-2.6c0-0.3-0.4-0.5-0.7-0.5c-0.7,0-2.7,0.2-4,0.2c-1.5,0-3.1-0.2-4.7-0.2c-0.5,0-0.7,0.3-0.7,0.7
		c0,1.1,2.7,0.2,3.9,3.2L51.7,397.2L51.7,397.2L51.7,397.2z"/>
	<path class="st0" d="M110.5,370c-0.6,0-2.2,2.2-2.2,2.7c0,0.6,1.5,2.7,2.2,2.7s2.2-2.1,2.2-2.7C112.7,372.1,111.2,370,110.5,370
		L110.5,370L110.5,370z"/>
	<path class="st0" d="M145.6,369.7c-0.6,0-2.2,2.2-2.2,2.7c0,0.6,1.5,2.7,2.2,2.7s2.2-2,2.2-2.7
		C147.8,371.8,146.3,369.7,145.6,369.7L145.6,369.7L145.6,369.7z"/>
	<path class="st0" d="M164.5,387.1c-12,2-12.9,5.2-12.9,7.9c0,3.6,2.2,4.9,5.5,4.9c2.9,0,5.7-1.1,7.8-3c0.7,1.7,2,2.6,4,2.6
		c0.7,0,3-0.2,3-1.3c0-0.4-0.4-0.4-0.7-0.4c-0.2,0-0.7,0.1-0.9,0.1c-2.7,0-2.2-3-2.2-4.8v-10.4c0-4.4-4.9-5.3-8.1-5.3
		c-5.7-0.2-8.6,3.4-8.6,5.8c0,0.9,1.5,1.7,2.4,1.7c1,0,1.1-0.4,1.1-1s-0.3-1.3-0.3-2.1c0-2.8,2-3.1,4.5-3.1c3.2,0,5.3,1.8,5.3,4.5
		v3.9H164.5L164.5,387.1z M164.5,394.3c0,2.7-3.5,4.1-5.3,4.1c-2.7,0-4.2-1.1-4.2-4c0-4.5,6.3-5.3,9.5-6V394.3L164.5,394.3
		L164.5,394.3z"/>
	<path class="st0" d="M74.5,398.4c-0.4,0-3.8,0-3.8-2.2v-18.4c0-0.5-0.3-0.8-0.6-0.8c-1.2,0-2.2,1.6-5.5,2.6c-0.3,0-0.5,0.3-0.5,0.6
		c0,1.1,2.8-0.3,2.8,2.8v12c0,4.7-2.3,2.7-2.3,4c0.1,0.5,0.4,0.6,0.8,0.6c0.6,0,1.9-0.2,3.5-0.2c2.1,0,3.7,0.2,4.8,0.2
		c0.2,0,0.4,0,0.6,0c0.2,0,0.2,0,0.3,0c0.4,0,1.3-0.2,4.7-0.2c2.9,0,4.1,0.2,4.8,0.2c0.6,0,0.8-0.1,0.8-0.6c0-1.6-4.6,0.8-4.6-3.9
		v-11.4c0-0.7,4.1-7.8,10.3-7.6c1.8,0.1,1.5,0.2,2.8-1.7c0.5-0.8-1.9-0.8-2.9-0.7c-6.9,0.5-8.4,5.2-10.1,7.7v-0.1v-3.4
		c0-0.5-0.3-0.8-0.6-0.8c-1.2,0-2.2,1.6-6.2,2.6c-0.3,0-0.7,0.3-0.7,0.6c0,1.1,3.7-0.3,3.7,2.8v13.2
		C76.8,397.8,75.1,398.5,74.5,398.4L74.5,398.4L74.5,398.4z"/>
	<path class="st0" d="M141.5,398.4c-0.5,0-3.8,0.2-3.8-2.9V387c0-3.9-1.5-9.6-8.4-9.6c-5,0-7.5,4.4-7.4,3.8v-3.4
		c0-0.5-0.3-0.8-0.6-0.8c-1.2,0-2.2,1.6-6.5,2.6c-0.3,0-0.5,0.3-0.5,0.6c0,1.1,3.8-0.3,3.8,2.8v12.7c0,2.4-1.7,2.7-2.5,2.7
		c-0.3-0.1-3.5-0.1-3.5-2.1v-18.5c0-0.5-0.3-0.8-0.6-0.8c-1.2,0-2.2,1.6-5.5,2.6c-0.3,0-0.9,1.8-0.6,1.7c1.7-0.2,2.9-1.4,2.9,1.6
		V395c0,4.7-2.3,2.7-2.3,4c0.1,0.5,0.4,0.6,0.8,0.6c0.6,0,1.9-0.2,3.5-0.2c2.1,0,3.7,0.2,4.8,0.2c0.1,0,0.4,0,0.5,0s0.2,0,0.3,0
		c0.6,0,1.6-0.2,4.4-0.2c3,0,4,0.2,4.9,0.2c0.8,0,1.1-0.1,1.1-0.7c0-1.4-4.5,0.1-4.5-3.4v-11.8c-0.1-0.8,1.7-4,6-4
		c4.1,0,6,3.8,6,6.4v9.6c0,3.3-2.2,2.3-2.2,3.3c0,0.5,0.3,0.6,0.9,0.6c0.7,0,1.7-0.2,3.7-0.2c2.5,0,3.8,0.2,4.5,0.2
		c0.3,0,0.4,0,0.6,0s0.3,0,0.6,0c0.6,0,1.9-0.2,3.5-0.2c2.1,0,3.7,0.2,4.8,0.2c0.7,0,1-0.2,1-0.6c0-1.3-4-0.2-4-2.8v-18.4
		c0-0.5-0.3-0.8-0.6-0.8c-1.2,0-2.2,1.6-5.5,2.6c-0.3,0-0.5,0.3-0.5,0.6c0,1.1,2.8-0.3,2.8,2.8v12
		C143.5,398.5,142.2,398.3,141.5,398.4L141.5,398.4L141.5,398.4z"/>
	<path class="st0" d="M95.5,392c-3.6,0-4.9-3.5-4.9-6.6c0-2.7,0.8-6,4.7-6c3.6,0,4.9,3.6,4.9,6.8C100.1,387.9,99.7,392,95.5,392
		L95.5,392z M108.3,379.6c-0.2-0.4-0.7-0.4-0.9-0.4h-0.1c-1.6,0.6-3,0.8-4.1,0.8c-0.6,0-1.2-0.1-1.5-0.3c-0.4-0.2-0.8-0.4-1.1-0.6
		c-1.2-0.7-2.2-1.4-5.5-1.4c-4.9,0-8.6,3.6-8.6,8.4c0,2.6,1.2,5,3.1,6.4c-0.8,0.7-2.5,2.4-2.5,4.2c0,2.2,0.8,3.8,2.1,4.4
		c1.1,0.6,3.4,1,6.8,1.1c5.5,0.2,6.7,0.4,6.7,2.1c0,0.8-0.4,4.7-8.2,4.7c-2,0-6.5-0.4-6.5-3.8c0-1.2,0.1-1.3,0.7-2.1
		c0.2-0.2,0.2-0.5,0.1-0.8c-0.1-0.3-0.5-0.5-0.9-0.5c-0.1,0-0.1,0-0.3,0c-1,0.3-2.5,0.8-2.5,3.3c0,4.6,5.9,5.8,9,5.8
		c8.6,0,11.6-4.2,11.6-7.8c0-4.9-5.3-4.9-8.2-4.9c-0.4,0-0.8,0-1.2,0s-0.7,0-1.1,0c-3.5,0-4.9-0.6-5.4-1.1c-0.3-0.4-0.3-0.7-0.3-1
		c0-1,1.1-2.5,2.1-2.5c0.2,0,0.3,0,0.6,0.1c0.5,0.1,1.2,0.3,3,0.3c5.1,0,8.9-3.4,8.9-8.2c0-0.8-0.1-1.7-0.4-2.9
		c-0.1-0.2-0.2-0.4-0.3-0.6c-0.1-0.1-0.1-0.3-0.2-0.4c1.7-0.2,4.7-0.9,4.8-1.5C108.3,380.3,108.5,379.9,108.3,379.6L108.3,379.6z"/>
	<path class="st0" d="M283.6,398.4c-0.3,0.1-0.6,0.8,0,1.1c0.2,0.1-0.1,0,0.1,0s0.2,0,0.3,0c0.4,0,1.3-0.2,4.7-0.2
		c2.9,0,4.1,0.2,4.8,0.2c0.6,0,0.8-0.1,0.8-0.6c0-1.6-4.6,0.8-4.6-3.9v-11.4c0-0.7,4.1-7.8,10.3-7.6c1.8,0.1,1.5,0.2,2.8-1.7
		c0.5-0.8-1.9-0.8-2.9-0.7c-6.9,0.6-8.4,5.2-10.1,7.7v-0.1v-3.4c0-0.5-0.3-0.8-0.6-0.8c-1.2,0-2.2,1.6-6.1,2.6
		c-0.3,0.1-0.7,0.3-0.7,0.6c0,1.1,3.7-0.3,3.7,2.8v13.2C286.1,397.7,284.2,398.2,283.6,398.4L283.6,398.4L283.6,398.4z"/>
	<path class="st0" d="M350.5,381.4c1-3.1,2.8-1.8,2.8-3c0-0.4-0.4-0.6-1-0.6c-0.5,0-1.4,0.2-2.6,0.2c-1.4,0-2.3-0.2-2.9-0.2
		c-0.9,0-1.5,0-1.5,0.6c0,1.1,3.3,0.4,3.3,3.1c0,0.4,0,0.8-0.6,2.7c-3.5,11.1-3.9,11.6-3.9,11.6l-5.5-13.9l0.1-0.1
		c0.1,0.5-0.4-0.3-0.4-1.1c0-2,2.9-1,2.9-2.1c0-0.6-0.3-0.7-1.1-0.7c-0.8,0-2,0.2-3.8,0.2c-1.4,0-2.5-0.1-3.6-0.1
		c-0.7,0-0.8,0.1-1,0.5c-1.3,2.6,1.9,0.8,2.4,1.9l6.7,16.5c0.5,1.1,1,2.2,1,3.4c0,4-4.8,12.8-12.6,11.8c-0.3,0-0.9-0.2-1.1,0.1
		c0.2,0.1-0.7-0.2,0.9,2.1c0.6,0.5,1.7,0.7,3.5,0.3c5.3-1.2,8.8-6.5,8.9-6.6C344.2,404,350.5,381.4,350.5,381.4L350.5,381.4
		L350.5,381.4z"/>
	<path class="st0" d="M179.5,367.4c0-3.7,3.4-2.3,3.4-3.7c0-0.6-1.4-0.5-1.6-0.5c-1.6,0-3.2,0.2-4.9,0.2c-1.4,0-2.7-0.2-4-0.2
		c-0.3,0-1.1,0.2-1.1,0.5c0,1.6,4.2,0.4,4.2,3.4v17.3c0,7.9,2.6,15.4,16,15.4c14.9,0,14.3-12.7,14.3-15.2v-15.8c0-4.7,3-3.6,3-5
		c0-0.3-0.4-0.6-0.7-0.6c-0.9,0-1.8,0.2-2.8,0.2c-2,0-4-0.2-6-0.2c-0.2,0-0.5,0.3-0.5,0.5c0,1.9,4.8-0.2,4.8,5v16.6
		c0,6-2.2,12.4-11.8,12.4c-6.9,0-12.2-3.7-12.2-11.9L179.5,367.4L179.5,367.4L179.5,367.4z"/>
	<path class="st0" d="M267,385c0-2.8,2.3-6.5,5.4-6.5c2.8,0,5.7,2.6,5.7,5.4c0,0.8-0.3,1-1,1H267V385L267,385z M280.7,386.3
		c1.2,0,1.7,0,1.7-0.9c0-2.1-2.8-8.1-9.1-8.1c-6.4,0-10,5.5-10,12c0,3.4,2.7,10.5,10.4,10.5c4.6,0,9.1-3.7,9.1-4.9
		c0-0.2,0-0.4-0.2-0.4c-1.1,0-2.8,2.7-7.2,2.7c-3.1,0-8.2-2.5-8.2-11h13.5V386.3L280.7,386.3z"/>
	<path class="st0" d="M303.3,389.8c2.1,1,4.7,1.8,4.7,4.5c0,2.7-2,4.2-4.6,4.2c-5.5,0-5-6.8-6.1-6.8c-0.8,0-0.6,1.6-0.6,2.5
		c0,4,0,4.1,1.1,4.1c1.2,0,2.2,1.5,5.7,1.5c3.8,0,6.9-3.2,6.9-7c0-3.3-1.3-4.9-4.3-6.1c-5.4-2.2-6.7-3.2-6.7-4.9
		c0-2.1,1.6-3.3,3.6-3.3c4.7,0,5.1,4.5,5.6,4.5c0.8,0,0.6-0.6,0.6-2c0-0.4,0.1-2.1-0.3-2.5c-0.6-0.8-4.2-1.2-5-1.2
		c-3.7,0-6.9,2-6.9,6.1C297.1,387.1,300.6,388.4,303.3,389.8L303.3,389.8L303.3,389.8z"/>
	<path class="st0" d="M323.7,393.9c0,5.3,3.4,5.9,5.7,5.9c3.6,0,6.4-1.7,6.4-2.5c0-0.4-0.2-0.5-0.4-0.5c-0.9,0-1.6,1.2-4.4,1.2
		c-2.1,0-3.5-1-3.6-3.1v-14.8h6.7l0.7-1.9c0.2-0.3-0.4-0.2-1.7-0.2h-5.6c0-3.7,0-4.8-0.7-4.8c-0.4,0-0.8-0.3-1,1.3
		c-0.4,3.4-3.2,4.7-3.2,5.1c0.3-0.3-0.9,0.5,1.2,0.4v13.9H323.7L323.7,393.9z"/>
	<path class="st0" d="M250.2,382.7c-0.6-1.5-0.9-2.3-0.9-2.5c0-1.5,2.9-0.9,2.9-1.9c0-0.6-0.5-0.6-1.2-0.6c-0.6,0-1.3,0.2-3.1,0.2
		c-3.3,0-3.3-0.2-4.3-0.2s-1.1,0.3-1.1,0.6c0,0.9,1.8,0.2,2.8,2.4l7.6,17.4c0.1,0.4,0.4,1.2,1,1.2c0.8,0,0.8-0.6,1.7-2.7l7.7-16.4
		c0.7-1.5,2.5-1.2,2.5-1.9c0-0.7-0.9-0.8-1.4-0.8c-0.9,0-1.8,0.2-2.6,0.2c-1.1,0-2.1-0.2-3.1-0.2c-0.7,0-1.2,0-1.2,0.7
		c0,1.3,3.1-0.1,3.1,2.7c0,2.3-1.3,4.4-2.2,6.4l-3.4,7.3L250.2,382.7L250.2,382.7L250.2,382.7z"/>
	<path class="st0" d="M234.9,399.5c0.2,0,0.2,0,0.5,0c0.6,0,1.9-0.2,3.5-0.2c2.1,0,3.7,0.2,4.8,0.2c0.7,0,1-0.2,1-0.6
		c0-1.3-4-0.2-4-2.8v-18.4c0-0.5-0.3-0.8-0.6-0.8c-1.2,0-2.2,1.6-5.5,2.6c-0.3,0.1-0.5,0.3-0.5,0.6c0,1.1,2.8-0.3,2.8,2.8V395
		c0,3.5-1.3,3.3-1.9,3.3c-0.2,0-3.9,0.2-3.9-2.9v-8.5c0-3.9-1.5-9.6-8.4-9.6c-5,0-7.5,4.4-7.4,3.8v-3.4c0-0.5-0.3-0.8-0.6-0.8
		c-1.2,0-2.2,1.6-6.5,2.6c-0.3,0.1-0.5,0.3-0.5,0.6c0,1.1,3.8-0.3,3.8,2.8v12.7c0,3.3-3,2.3-3,3.3c0,0.5,0.3,0.6,0.9,0.6
		s1.6-0.2,4.4-0.2c3,0,4,0.2,4.9,0.2c0.8,0,1.1-0.1,1.1-0.7c0-1.4-4.5,0.1-4.5-3.4v-11.8c-0.1-0.8,1.7-4,6-4c4.2,0,6,3.8,6,6.4v9.6
		c0,3.3-2.2,2.3-2.2,3.3c0,0.5,0.3,0.6,0.9,0.6s1.7-0.2,3.7-0.2c2.5,0,3.8,0.2,4.5,0.2C234.4,399.5,234.8,399.5,234.9,399.5
		L234.9,399.5L234.9,399.5z"/>
	<path class="st0" d="M239.1,370c-0.6,0-2.2,2.2-2.2,2.7c0,0.6,1.5,2.7,2.2,2.7s2.2-2,2.2-2.7C241.2,372.1,239.8,370,239.1,370
		L239.1,370L239.1,370z"/>
	<path class="st0" d="M314.4,394.7c0,4.7-2.3,2.7-2.3,4c0,0.5,0.4,0.6,0.8,0.6c0.6,0,1.9-0.2,3.5-0.2c2.1,0,3.7,0.2,4.8,0.2
		c0.7,0,1-0.2,1-0.6c0-1.3-4.1-0.2-4.1-2.8v-18.4c0-0.5-0.3-0.8-0.6-0.8c-1.2,0-2.2,1.6-5.5,2.6c-0.3,0.1-0.5,0.3-0.5,0.6
		c0,1.1,2.8-0.3,2.8,2.8v12H314.4L314.4,394.7z"/>
	<path class="st0" d="M316.5,370c-0.6,0-2.2,2.2-2.2,2.7c0,0.6,1.5,2.7,2.2,2.7s2.2-2,2.2-2.7C318.6,372.1,317.1,370,316.5,370
		L316.5,370L316.5,370z"/>
	<path class="st0" d="M350.6,397.2V396h0.8c0.4,0,0.9,0.1,0.9,0.6c0,0.6-0.5,0.7-1,0.7L350.6,397.2L350.6,397.2L350.6,397.2z
		 M350.6,397.7h0.7l1.1,1.8h0.7l-1.1-1.8c0.6-0.1,1-0.4,1-1.1c0-0.8-0.5-1.2-1.4-1.2H350v4h0.6V397.7L350.6,397.7L350.6,397.7z
		 M348.5,397.4c0-1.7,1.2-2.9,2.9-2.9c1.6,0,2.8,1.2,2.8,2.9c0,1.7-1.3,2.9-2.8,2.9C349.7,400.4,348.5,399.1,348.5,397.4
		L348.5,397.4L348.5,397.4z M351.3,400.9c1.9,0,3.5-1.5,3.5-3.5s-1.6-3.5-3.5-3.5s-3.6,1.5-3.6,3.5
		C347.8,399.5,349.4,400.9,351.3,400.9L351.3,400.9L351.3,400.9z"/>
	<path class="st1" d="M-59.6,350.7h-12.9h-0.8c-2.4,0-3.3,0.9-4,2l-10.1,15l-9.8-14.7l-0.3-0.5c0,0-0.3-0.4-0.7-0.4l0,0l0,0l0,0l0,0
		c-0.5-0.1-0.8,0.4-0.8,0.4l-0.3,0.5l-9.4,14.8l-10.5-15.1c-0.7-1.1-1.6-2-4-2h-0.8h-12.9V363h7.6c1.6,0,2.3,0.1,3.5,1.4l0.5,0.7
		l15.3,24.1c0,0,0.5,0.8,1.3,0.8c0.9,0,1.4-0.8,1.4-0.8l9-13.4l0,0l0,0l0,0l0,0l9.3,13.4c0,0,0.5,0.8,1.3,0.8c0.8,0,1.3-0.8,1.3-0.8
		l15.2-24.1l0.5-0.7c0.8-1.2,1.8-1.4,3.4-1.3h7.6L-59.6,350.7L-59.6,350.7z"/>
	<path class="st1" d="M-79.1,385.2l-8.3,13.2l-10.7-15.6l-8.2,12.1l17.3,27.2c0.6,1,1.1,1.2,1.3,1.2c0.5,0,0.8-0.3,1.4-1.2
		l13.6-24.8c1.2-2.2,3.2-2.1,3.2-2.1h9.8v-12.3h-15.2C-77.7,382.9-79.1,385.2-79.1,385.2L-79.1,385.2z"/>
</g>
<g>
	<path class="st0" d="M-43.8,440.9v-20.8h2.7v18.3h10.2v2.4h-12.9V440.9z"/>
	<path class="st0" d="M-28,440.9v-20.8h2.7v20.8C-25.3,440.9-28,440.9-28,440.9z"/>
	<path class="st0" d="M-21.5,440.9v-20.8h7.8c1.6,0,2.9,0.2,3.8,0.6c1,0.4,1.7,1.1,2.3,1.9c0.5,0.9,0.8,1.8,0.8,2.7
		c0,0.9-0.2,1.7-0.7,2.5c-0.5,0.8-1.2,1.4-2.2,1.9c1.3,0.4,2.2,1,2.9,1.9s1,1.9,1,3.1c0,1-0.2,1.9-0.6,2.7c-0.4,0.8-0.9,1.5-1.5,1.9
		c-0.6,0.4-1.4,0.8-2.3,1c-0.9,0.2-2,0.3-3.3,0.3h-8V440.9z M-18.7,428.9h4.5c1.2,0,2.1-0.1,2.6-0.2c0.7-0.2,1.2-0.6,1.6-1
		c0.4-0.5,0.5-1.1,0.5-1.8c0-0.7-0.2-1.3-0.5-1.8s-0.8-0.9-1.4-1.1c-0.6-0.2-1.7-0.3-3.2-0.3h-4.1L-18.7,428.9L-18.7,428.9z
		 M-18.7,438.4h5.2c0.9,0,1.5,0,1.9-0.1c0.6-0.1,1.2-0.3,1.6-0.6s0.8-0.6,1-1.2c0.3-0.5,0.4-1.1,0.4-1.7c0-0.8-0.2-1.4-0.6-2
		c-0.4-0.6-0.9-1-1.6-1.2c-0.7-0.2-1.7-0.3-3-0.3h-4.8L-18.7,438.4L-18.7,438.4z"/>
	<path class="st0" d="M-2.9,440.9v-20.8h9.2c1.9,0,3.3,0.2,4.2,0.6c1,0.4,1.7,1,2.3,2s0.9,2,0.9,3.1c0,1.5-0.5,2.7-1.4,3.7
		s-2.4,1.7-4.4,1.9c0.7,0.3,1.3,0.7,1.7,1c0.8,0.7,1.6,1.7,2.3,2.8l3.6,5.6H12l-2.7-4.3c-0.8-1.2-1.5-2.2-2-2.9
		c-0.5-0.7-1-1.1-1.4-1.4c-0.4-0.3-0.8-0.4-1.3-0.6c-0.3-0.1-0.8-0.1-1.5-0.1h-3.2v9.2h-2.8V440.9z M-0.2,429.3h5.9
		c1.3,0,2.2-0.1,2.9-0.4c0.7-0.3,1.2-0.7,1.6-1.2c0.4-0.6,0.6-1.2,0.6-1.9c0-1-0.4-1.8-1.1-2.4c-0.7-0.6-1.8-0.9-3.4-0.9h-6.6v6.8
		H-0.2z"/>
	<path class="st0" d="M14.8,440.9l8-20.8h3l8.5,20.8h-3.1l-2.4-6.3H20l-2.3,6.3C17.7,440.9,14.8,440.9,14.8,440.9z M20.8,432.4h7
		l-2.2-5.7c-0.7-1.7-1.2-3.2-1.5-4.3c-0.3,1.3-0.6,2.7-1.1,4L20.8,432.4z"/>
	<path class="st0" d="M35.5,440.9v-20.8h9.2c1.9,0,3.3,0.2,4.2,0.6c1,0.4,1.7,1,2.3,2s0.9,2,0.9,3.1c0,1.5-0.5,2.7-1.4,3.7
		s-2.4,1.7-4.4,1.9c0.7,0.3,1.3,0.7,1.7,1c0.8,0.7,1.6,1.7,2.3,2.8l3.6,5.6h-3.5l-2.7-4.3c-0.8-1.2-1.5-2.2-2-2.9
		c-0.5-0.7-1-1.1-1.4-1.4c-0.4-0.3-0.8-0.4-1.3-0.6c-0.3-0.1-0.8-0.1-1.5-0.1h-3.2v9.2h-2.8V440.9z M38.3,429.3h5.9
		c1.3,0,2.2-0.1,2.9-0.4c0.7-0.3,1.2-0.7,1.6-1.2c0.4-0.6,0.6-1.2,0.6-1.9c0-1-0.4-1.8-1.1-2.4c-0.7-0.6-1.8-0.9-3.4-0.9h-6.6v6.8
		H38.3z"/>
	<path class="st0" d="M56,440.9v-20.8h2.7v20.8C58.7,440.9,56,440.9,56,440.9z"/>
	<path class="st0" d="M62.7,440.9v-20.8h15v2.4H65.4v6.4h11.5v2.4H65.4v7.1h12.7v2.4H62.7V440.9z"/>
	<path class="st0" d="M80.1,434.2l2.6-0.2c0.1,1,0.4,1.9,0.9,2.6c0.4,0.7,1.1,1.2,2.1,1.6c0.9,0.4,2,0.6,3.2,0.6c1,0,2-0.2,2.8-0.5
		c0.8-0.3,1.4-0.7,1.8-1.3c0.4-0.5,0.6-1.1,0.6-1.8c0-0.7-0.2-1.2-0.6-1.7c-0.4-0.5-1-0.9-1.9-1.2c-0.6-0.2-1.8-0.6-3.7-1
		c-1.9-0.5-3.2-0.9-4-1.3c-1-0.5-1.7-1.2-2.2-1.9c-0.5-0.8-0.7-1.6-0.7-2.6s0.3-2,0.9-2.9c0.6-0.9,1.5-1.6,2.6-2.1s2.4-0.7,3.8-0.7
		c1.5,0,2.9,0.2,4.1,0.7c1.2,0.5,2.1,1.2,2.7,2.2s1,2.1,1,3.3l-2.6,0.2c-0.1-1.3-0.6-2.3-1.4-3c-0.8-0.7-2-1-3.6-1
		c-1.7,0-2.9,0.3-3.6,0.9c-0.8,0.6-1.1,1.3-1.1,2.2c0,0.7,0.3,1.4,0.8,1.8c0.5,0.5,1.9,1,4.1,1.5c2.2,0.5,3.8,0.9,4.6,1.3
		c1.2,0.6,2.1,1.3,2.7,2.1c0.6,0.9,0.9,1.8,0.9,3c0,1.1-0.3,2.1-0.9,3.1c-0.6,1-1.5,1.7-2.7,2.3c-1.2,0.5-2.5,0.8-4,0.8
		c-1.9,0-3.5-0.3-4.7-0.8c-1.3-0.5-2.3-1.4-3-2.5C80.5,436.8,80.1,435.6,80.1,434.2z"/>
</g>
</svg>
