<?xml version="1.0" encoding="utf-8"?>
<!-- Generator: Adobe Illustrator 18.1.1, SVG Export Plug-In . SVG Version: 6.00 Build 0)  -->
<svg version="1.1" id="Layer_1" xmlns="http://www.w3.org/2000/svg" xmlns:xlink="http://www.w3.org/1999/xlink" x="0px" y="0px"
	 width="16px" height="16px" viewBox="-387 389 16 16" enable-background="new -387 389 16 16" xml:space="preserve">
<text transform="matrix(1 0 0 1 -378 1174)" font-family="'MyriadPro-Regular'" font-size="12"></text>
<text transform="matrix(1 0 0 1 -378 1174)" font-family="'MyriadPro-Regular'" font-size="12"></text>
<path fill="#EDECEC" d="M-373.3,402.7L-373.3,402.7c-0.4,0.4-1.1,0.4-1.5,0l-9.9-9.9c-0.4-0.4-0.4-1.1,0-1.5l0,0
	c0.4-0.4,1.1-0.4,1.5,0l9.9,9.9C-372.9,401.6-372.9,402.3-373.3,402.7z"/>
<path fill="#EDECEC" d="M-384.7,402.7L-384.7,402.7c-0.4-0.4-0.4-1.1,0-1.5l9.9-9.9c0.4-0.4,1.1-0.4,1.5,0l0,0
	c0.4,0.4,0.4,1.1,0,1.5l-9.9,9.9C-383.6,403.1-384.3,403.1-384.7,402.7z"/>
</svg>
